<?xml version="1.0" encoding="UTF-8" standalone="no"?>
<svg
   xmlns:dc="http://purl.org/dc/elements/1.1/"
   xmlns:cc="http://creativecommons.org/ns#"
   xmlns:rdf="http://www.w3.org/1999/02/22-rdf-syntax-ns#"
   xmlns:svg="http://www.w3.org/2000/svg"
   xmlns="http://www.w3.org/2000/svg"
   id="svg761"
   version="1.1"
   viewBox="0 0 38.58492 22.185807"
   height="22.185806mm"
   width="38.584919mm">
  <defs
     id="defs755">
    <clipPath
       id="clipPath624"
       clipPathUnits="userSpaceOnUse">
      <path
         id="path622"
         d="M 97.3687,432.855 H 206.744 V 369.966 H 97.3687 Z" />
    </clipPath>
  </defs>
  <metadata
     id="metadata758">
    <rdf:RDF>
      <cc:Work
         rdf:about="">
        <dc:format>image/svg+xml</dc:format>
        <dc:type
           rdf:resource="http://purl.org/dc/dcmitype/StillImage" />
        <dc:title></dc:title>
      </cc:Work>
    </rdf:RDF>
  </metadata>
  <g
     transform="translate(-114.47347,-77.725414)"
     id="layer1">
    <g
       id="g618"
       transform="matrix(0.35277777,0,0,-0.35277777,80.123864,230.427)">
      <g
         id="g620" />
      <g
         id="g632">
        <g
           style="opacity:0.30000299"
           id="g630"
           clip-path="url(#clipPath624)">
          <g
             id="g628"
             transform="translate(191.4819,404.7529)">
            <path
               id="path626"
               style="fill:#575a5d;fill-opacity:1;fill-rule:nonzero;stroke:none"
               d="m 0,0 c -9.057,5.976 -18.157,12.597 -24.496,15.188 -8.479,3.467 -16.746,7.506 -24.74,8.671 -4.444,0.648 -8.641,1.26 -12.649,2.236 -5.548,1.351 -10.072,2.007 -13.829,2.007 -9.646,0 -13.973,-4.664 -16.521,-8.17 -4.251,-5.849 -0.688,-19.425 4.74,-27.759 4.509,-6.923 2.092,-14.256 5.719,-19.288 2.284,-3.169 6.957,-7.647 40.043,-7.648 h 0.004 c 32.534,0 54.376,-1.091 56.784,11.43 C 16.097,-17.917 13.514,-8.252 0,0" />
          </g>
        </g>
      </g>
    </g>
  </g>
</svg>
