<?xml version="1.0" encoding="UTF-8" standalone="no"?>
<!-- Created with Inkscape (http://www.inkscape.org/) -->

<svg
   xmlns:dc="http://purl.org/dc/elements/1.1/"
   xmlns:cc="http://creativecommons.org/ns#"
   xmlns:rdf="http://www.w3.org/1999/02/22-rdf-syntax-ns#"
   xmlns:svg="http://www.w3.org/2000/svg"
   xmlns="http://www.w3.org/2000/svg"
   xmlns:sodipodi="http://sodipodi.sourceforge.net/DTD/sodipodi-0.dtd"
   xmlns:inkscape="http://www.inkscape.org/namespaces/inkscape"
   width="38.846348mm"
   height="21.320459mm"
   viewBox="0 0 38.84635 21.32046"
   version="1.1"
   id="svg761"
   inkscape:version="0.92.1 r"
   sodipodi:docname="Unnamed document 15.svg">
  <defs
     id="defs755">
    <clipPath
       clipPathUnits="userSpaceOnUse"
       id="clipPath624">
      <path
         d="M 97.3687,432.855 H 206.744 V 369.966 H 97.3687 Z"
         id="path622"
         inkscape:connector-curvature="0" />
    </clipPath>
    <clipPath
       clipPathUnits="userSpaceOnUse"
       id="clipPath608">
      <path
         d="M 371.278,165.258 H 483.737 V 105.903 H 371.278 Z"
         id="path606"
         inkscape:connector-curvature="0" />
    </clipPath>
    <clipPath
       clipPathUnits="userSpaceOnUse"
       id="clipPath608-0">
      <path
         d="M 371.278,165.258 H 483.737 V 105.903 H 371.278 Z"
         id="path606-9"
         inkscape:connector-curvature="0" />
    </clipPath>
    <linearGradient
       x1="0"
       y1="0"
       x2="1"
       y2="0"
       gradientUnits="userSpaceOnUse"
       gradientTransform="matrix(-2.4e-6,-54.880859,-54.880859,2.4e-6,580.87744,693.8252)"
       spreadMethod="pad"
       id="linearGradient574">
      <stop
         style="stop-opacity:1;stop-color:#2f2480"
         offset="0"
         id="stop568" />
      <stop
         style="stop-opacity:1;stop-color:#2f2480"
         offset="0.198822"
         id="stop570" />
      <stop
         style="stop-opacity:1;stop-color:#1c4432"
         offset="1"
         id="stop572" />
    </linearGradient>
  </defs>
  <sodipodi:namedview
     id="base"
     pagecolor="#ffffff"
     bordercolor="#666666"
     borderopacity="1.0"
     inkscape:pageopacity="0.0"
     inkscape:pageshadow="2"
     inkscape:zoom="2.3150307"
     inkscape:cx="-83.71137"
     inkscape:cy="26.467078"
     inkscape:document-units="mm"
     inkscape:current-layer="layer1"
     showgrid="false"
     fit-margin-top="0"
     fit-margin-left="0"
     fit-margin-right="0"
     fit-margin-bottom="0"
     inkscape:window-width="1080"
     inkscape:window-height="675"
     inkscape:window-x="352"
     inkscape:window-y="117"
     inkscape:window-maximized="0" />
  <metadata
     id="metadata758">
    <rdf:RDF>
      <cc:Work
         rdf:about="">
        <dc:format>image/svg+xml</dc:format>
        <dc:type
           rdf:resource="http://purl.org/dc/dcmitype/StillImage" />
        <dc:title></dc:title>
      </cc:Work>
    </rdf:RDF>
  </metadata>
  <g
     inkscape:label="Layer 1"
     inkscape:groupmode="layer"
     id="layer1"
     transform="translate(-180.38015,-75.434992)">
    <path
       d="m 188.07,92.841331 c -0.17215,0.07655 -0.35242,0.101953 -0.52916,0.09349 0.006,0.04798 0.0148,0.0949 0.0148,0.144286 0,0.639939 -0.51858,1.158169 -1.15816,1.158169 -0.63994,0 -1.15888,-0.51823 -1.15888,-1.158169 0,-0.639939 0.51894,-1.15817 1.15888,-1.15817 0.0194,0 0.0377,0.0046 0.0575,0.0053 -0.0617,-0.493183 0.19544,-0.989542 0.6731,-1.201561 0.58455,-0.259997 1.26859,0.0025 1.52894,0.587375 0.26035,0.584553 -0.002,1.268589 -0.58703,1.529291 m 0.8188,-6.704541 c 0.58491,-0.259997 1.2693,0.0021 1.53,0.587022 0.25964,0.584553 -0.004,1.268942 -0.58773,1.529292 -0.5842,0.26035 -1.26894,-0.0028 -1.52929,-0.587023 -0.26035,-0.5842 0.002,-1.269294 0.58702,-1.529291 m 2.14172,3.4671 c 0,0.640291 -0.51859,1.158169 -1.15853,1.158169 -0.63923,0 -1.15817,-0.517878 -1.15817,-1.158169 0,-0.639586 0.51894,-1.157817 1.15817,-1.157817 0.63994,0 1.15853,0.518231 1.15853,1.157817 m 0.68509,2.881841 c 0.22543,-0.100541 0.46531,-0.121355 0.69003,-0.07761 0.21026,-0.294216 0.55245,-0.487186 0.94157,-0.487186 0.63958,0 1.15817,0.518231 1.15817,1.15817 0,0.639939 -0.51859,1.158169 -1.15817,1.158169 -0.0762,0 -0.15029,-0.0081 -0.22155,-0.02187 -0.11641,0.161925 -0.27199,0.299508 -0.46778,0.386644 -0.58385,0.26035 -1.26929,-0.0032 -1.52894,-0.587375 -0.26035,-0.583847 0.002,-1.268941 0.58667,-1.528938 m 1.6316,-7.51452 c 0.63958,0 1.15817,0.518584 1.15817,1.15817 0,0.640291 -0.51859,1.158169 -1.15817,1.158169 -0.63959,0 -1.15852,-0.517878 -1.15852,-1.158169 0,-0.639586 0.51893,-1.15817 1.15852,-1.15817 m 1.65946,3.513667 c 0.25965,0.5842 -0.004,1.269647 -0.58772,1.529292 -0.58456,0.26035 -1.26895,-0.0025 -1.5293,-0.587375 -0.26035,-0.583848 0.003,-1.269295 0.58703,-1.528939 0.58455,-0.260703 1.26894,0.0025 1.52999,0.587022 m 0.23143,-5.17525 c 0.18873,-0.08361 0.38699,-0.10795 0.5789,-0.08961 -0.0952,-0.16757 -0.15345,-0.358775 -0.15345,-0.565856 0,-0.639233 0.51893,-1.158169 1.15852,-1.158169 0.63923,0 1.15852,0.518936 1.15852,1.158169 0,0.640292 -0.51929,1.158169 -1.15852,1.158169 -0.0377,0 -0.0723,-0.0067 -0.10901,-0.01094 0.018,0.0321 0.0395,0.06174 0.0543,0.0956 0.2607,0.5842 -0.003,1.269294 -0.58702,1.529644 -0.5842,0.26035 -1.2693,-0.0028 -1.5293,-0.587728 -0.26035,-0.5842 0.003,-1.268588 0.58703,-1.529291 m 1.76071,-4.587522 c 0.58455,-0.260703 1.26965,0.0025 1.52964,0.587022 0.26,0.584553 -0.003,1.269294 -0.58737,1.528939 -0.5842,0.26035 -1.26824,-0.0028 -1.52894,-0.587022 -0.26035,-0.583848 0.002,-1.268942 0.58667,-1.528939 m 2.14842,7.324372 c 0.003,-0.0448 0.005,-0.08925 0.0134,-0.13335 0.007,-0.03845 0.0205,-0.0755 0.031,-0.112889 0.0106,-0.03422 0.0183,-0.06809 0.0314,-0.100895 0.0152,-0.03845 0.0349,-0.07303 0.0547,-0.10795 0.0155,-0.0314 0.0296,-0.06209 0.049,-0.09137 0.0212,-0.0321 0.0452,-0.06068 0.0691,-0.09031 0.0226,-0.02893 0.0437,-0.05891 0.0705,-0.08502 0.0268,-0.02822 0.0575,-0.05256 0.0871,-0.0769 0.0275,-0.02328 0.0533,-0.04798 0.0829,-0.06879 0.0392,-0.02716 0.0825,-0.04833 0.12524,-0.07197 0.0222,-0.01094 0.0416,-0.02575 0.0642,-0.03634 0.003,-7.14e-4 0.006,-7.14e-4 0.009,-0.0021 0.0437,-0.0194 0.0907,-0.0314 0.13582,-0.04586 0.0293,-0.0081 0.0572,-0.02011 0.0864,-0.02611 0.0258,-0.0053 0.0536,-0.0056 0.0804,-0.0092 0.0501,-0.0078 0.10055,-0.01552 0.15099,-0.01552 0.003,0 0.005,-7.14e-4 0.008,-7.14e-4 0.024,0 0.0455,0.0053 0.0684,0.0063 0.0501,0.0035 0.10019,0.006 0.14958,0.01517 0.0342,0.0067 0.0663,0.01799 0.0998,0.02822 0.0385,0.01058 0.0773,0.02046 0.11465,0.03528 0.0335,0.01376 0.0649,0.0321 0.097,0.04833 0.0342,0.01799 0.0691,0.03422 0.1016,0.05539 0.0289,0.0187 0.055,0.04127 0.0818,0.06209 0.0317,0.02575 0.0642,0.04939 0.0935,0.07726 0.0254,0.0254 0.0466,0.05397 0.0702,0.08114 0.025,0.02928 0.0519,0.05715 0.0737,0.0889 0.0265,0.03845 0.0466,0.07902 0.0684,0.119944 0.0123,0.02328 0.0286,0.0441 0.0399,0.0695 7.1e-4,0.0021 0.001,0.006 0.003,0.0092 0.0173,0.04092 0.0293,0.08502 0.0423,0.129116 0.009,0.03034 0.0222,0.06174 0.0286,0.09243 0.005,0.02363 0.005,0.04939 0.009,0.07408 0.007,0.05221 0.0155,0.105128 0.0155,0.157339 0,0.0035 7.1e-4,0.0056 7.1e-4,0.0085 0,0.02187 -0.005,0.04198 -0.007,0.06385 -0.002,0.05186 -0.006,0.104069 -0.0152,0.154164 -0.006,0.03387 -0.0176,0.06562 -0.0272,0.09807 -0.0113,0.03951 -0.0205,0.07867 -0.036,0.116064 -0.0138,0.03422 -0.0321,0.06562 -0.0487,0.09701 -0.018,0.03457 -0.0335,0.06914 -0.0547,0.1016 -0.0194,0.02963 -0.042,0.05539 -0.0642,0.08325 -0.0243,0.0314 -0.0476,0.0628 -0.0755,0.09172 -0.0257,0.02646 -0.055,0.04868 -0.0829,0.07303 -0.0289,0.02399 -0.0557,0.04974 -0.0868,0.07126 -0.0392,0.02681 -0.0815,0.04868 -0.12418,0.07091 -0.0222,0.01199 -0.042,0.02681 -0.0649,0.03739 -0.003,0.0011 -0.006,0.0014 -0.008,0.0021 -0.0455,0.02011 -0.0938,0.03351 -0.14182,0.04692 -0.0268,0.0078 -0.0529,0.0194 -0.0801,0.02505 -0.03,0.0063 -0.0617,0.0067 -0.0928,0.01058 -0.0459,0.0064 -0.0924,0.01411 -0.13829,0.01411 -0.003,0 -0.007,0.0011 -0.01,0.0011 -0.0279,0 -0.054,-0.0063 -0.0811,-0.0085 -0.0452,-0.0028 -0.091,-0.0042 -0.13511,-0.01376 -0.0381,-0.0071 -0.0751,-0.01905 -0.11254,-0.03104 -0.0342,-0.0099 -0.0688,-0.01834 -0.1016,-0.03069 -0.0374,-0.01552 -0.072,-0.03563 -0.10724,-0.05433 -0.031,-0.01587 -0.0624,-0.03034 -0.0917,-0.04939 -0.0321,-0.02117 -0.0607,-0.04551 -0.091,-0.0695 -0.0286,-0.02293 -0.0575,-0.0441 -0.0843,-0.0702 -0.0286,-0.02716 -0.0526,-0.05891 -0.0783,-0.08925 -0.0222,-0.02681 -0.0462,-0.05115 -0.066,-0.08079 -0.0293,-0.04057 -0.0519,-0.08572 -0.0751,-0.129823 -0.0106,-0.02081 -0.0247,-0.03845 -0.0342,-0.05962 -0.001,-0.0025 -0.002,-0.006 -0.002,-0.006 -0.0215,-0.05009 -0.0349,-0.100542 -0.0494,-0.150989 -0.007,-0.02434 -0.0176,-0.04833 -0.0229,-0.07267 -0.006,-0.0314 -0.007,-0.06526 -0.0113,-0.09772 -0.006,-0.04445 -0.0134,-0.08961 -0.0134,-0.133349 0,-0.0039 -0.001,-0.0074 -0.001,-0.01058 0,-0.02752 0.006,-0.05468 0.009,-0.0829 m 1.14969,-8.025681 c 0.63994,0 1.15817,0.518936 1.15817,1.158169 0,0.640997 -0.51823,1.158522 -1.15817,1.158522 -0.64029,0 -1.15852,-0.517525 -1.15852,-1.158522 0,-0.639233 0.51823,-1.158169 1.15852,-1.158169 m 2.81905,3.049058 c 0.085,0.189089 0.10865,0.387703 0.0907,0.579261 0.16828,-0.09384 0.35878,-0.153106 0.56586,-0.153106 0.63958,0 1.15817,0.518936 1.15817,1.15817 0,0.640291 -0.51859,1.158169 -1.15817,1.158169 -0.6403,0 -1.15853,-0.517878 -1.15853,-1.158169 0,-0.03704 0.007,-0.07232 0.0109,-0.109009 -0.0321,0.01834 -0.061,0.03951 -0.0952,0.05468 -0.58455,0.259997 -1.26894,-0.0021 -1.52929,-0.586669 -0.26035,-0.585259 0.002,-1.269648 0.58667,-1.529645 0.58455,-0.260703 1.27,0.0021 1.52894,0.586317 m 2.82751,6.349647 c 0.26035,0.5842 -0.002,1.268941 -0.58667,1.528939 -0.18874,0.08431 -0.38735,0.108302 -0.57997,0.09031 0.0953,0.167216 0.15381,0.358775 0.15381,0.56515 0,0.640291 -0.51858,1.158169 -1.15816,1.158169 -0.6403,0 -1.15853,-0.517878 -1.15853,-1.158169 0,-0.639586 0.51823,-1.157817 1.15853,-1.157817 0.0374,0 0.0727,0.0078 0.10936,0.01058 -0.0184,-0.0321 -0.0388,-0.06103 -0.0547,-0.09525 -0.26035,-0.5842 0.003,-1.269294 0.58772,-1.528938 0.58456,-0.26035 1.26824,0.0025 1.52859,0.587022 m 0.23213,-5.174897 c 0.5842,-0.26035 1.26929,0.0025 1.52929,0.586316 0.26035,0.584906 -0.003,1.269295 -0.58738,1.529292 -0.58455,0.26035 -1.26894,-0.0025 -1.52929,-0.586669 -0.25999,-0.5842 0.003,-1.268942 0.58738,-1.528939 m 2.23026,3.884789 c 0,0.640291 -0.51858,1.158169 -1.15817,1.158169 -0.64029,0 -1.15852,-0.517878 -1.15852,-1.158169 0,-0.639587 0.51823,-1.15817 1.15852,-1.15817 0.63959,0 1.15817,0.518583 1.15817,1.15817 m 0.59655,2.463799 c 0.35524,-0.157691 0.74647,-0.121002 1.05798,0.06244 0.18732,-0.13088 0.41522,-0.20955 0.66216,-0.20955 0.63923,0 1.15852,0.518231 1.15852,1.157817 0,0.640291 -0.51929,1.158169 -1.15852,1.158169 -0.21449,0 -0.4124,-0.06138 -0.58455,-0.162983 -0.0596,0.04269 -0.12418,0.07937 -0.19297,0.111125 -0.58526,0.259644 -1.2693,-0.0028 -1.53,-0.587728 -0.26,-0.584553 0.002,-1.268942 0.58738,-1.529292 m 1.72014,-7.097183 c 0.63923,0 1.15852,0.518936 1.15852,1.15817 0,0.640291 -0.51929,1.158169 -1.15852,1.158169 -0.63994,0 -1.15817,-0.517878 -1.15817,-1.158169 0,-0.639234 0.51823,-1.15817 1.15817,-1.15817 m 1.57021,3.096331 c 0.26035,0.5842 -0.003,1.269647 -0.58702,1.529291 -0.58455,0.259645 -1.26894,-0.0021 -1.52929,-0.586669 -0.26035,-0.584553 0.003,-1.269647 0.58702,-1.529644 0.5842,-0.26035 1.26859,0.0028 1.52929,0.587022 m 1.29752,5.762272 c 0.58491,-0.26035 1.26894,0.0021 1.52965,0.587728 0.1905,0.428977 0.0977,0.91193 -0.1965,1.241425 0.26141,0.212019 0.43215,0.532694 0.43215,0.89535 0,0.639939 -0.51858,1.158169 -1.15782,1.158169 -0.63993,0 -1.15887,-0.51823 -1.15887,-1.158169 0,-0.296334 0.11501,-0.563739 0.2981,-0.769056 -0.139,-0.110772 -0.25647,-0.252589 -0.33408,-0.426508 -0.26,-0.5842 0.003,-1.268942 0.58737,-1.528939 m 0.60748,-5.383389 c 0.52247,0 0.95885,0.348545 1.10279,0.824089 0.0177,-0.0085 0.0328,-0.02046 0.0508,-0.02893 0.58455,-0.259997 1.26894,0.0032 1.52929,0.587375 0.2607,0.584553 -0.002,1.268942 -0.58702,1.528939 -0.58456,0.260703 -1.2693,-0.0025 -1.52894,-0.587022 -0.0208,-0.04516 -0.0317,-0.09137 -0.0455,-0.137231 -0.15769,0.07937 -0.33337,0.129117 -0.52141,0.129117 -0.63993,0 -1.15887,-0.517878 -1.15887,-1.158169 0,-0.639587 0.51894,-1.15817 1.15887,-1.15817 m 4.63233,4.632678 c 0,0.640291 -0.51823,1.158169 -1.15782,1.158169 -0.64029,0 -1.15852,-0.517878 -1.15852,-1.158169 0,-0.639586 0.51823,-1.157817 1.15852,-1.157817 0.63959,0 1.15782,0.518231 1.15782,1.157817 m -10.64719,5.693833 c -0.5842,0.26035 -1.26823,-0.0025 -1.52858,-0.586669 -0.10054,-0.225425 -0.12136,-0.465667 -0.0776,-0.690739 -0.29422,-0.210256 -0.48754,-0.55245 -0.48754,-0.941211 0,-0.639939 0.51823,-1.15817 1.15852,-1.15817 0.63959,0 1.15817,0.518231 1.15817,1.15817 0,0.0762 -0.008,0.150283 -0.0222,0.221897 0.16228,0.115711 0.29987,0.271286 0.387,0.467078 0.26,0.584552 -0.003,1.269647 -0.58773,1.529644 m -4.58787,-1.761419 c -0.5842,0.261055 -1.26859,-0.0025 -1.52894,-0.587023 -0.26035,-0.584552 0.002,-1.268941 0.58667,-1.528586 0.58455,-0.260702 1.27,0.0021 1.52929,0.586317 0.2607,0.584906 -0.002,1.268942 -0.58702,1.529292 m -3.29812,0.700969 c -0.64029,0 -1.15852,-0.51823 -1.15852,-1.158169 0,-0.639939 0.51823,-1.15817 1.15852,-1.15817 0.63994,0 1.15817,0.518231 1.15817,1.15817 0,0.639939 -0.51823,1.158169 -1.15817,1.158169 m -2.81905,-3.049058 c -0.084,-0.189089 -0.10865,-0.386997 -0.0903,-0.579261 -0.16757,0.09525 -0.35842,0.153105 -0.5655,0.153105 -0.63959,0 -1.15852,-0.517878 -1.15852,-1.158169 0,-0.639586 0.51893,-1.157817 1.15852,-1.157817 0.63923,0 1.15852,0.518231 1.15852,1.157817 0,0.0381 -0.008,0.07303 -0.0113,0.109714 0.0317,-0.01834 0.061,-0.03986 0.0952,-0.05468 0.58455,-0.260703 1.26965,0.0025 1.53,0.587022 0.25964,0.584553 -0.004,1.268942 -0.58738,1.529645 -0.5842,0.259997 -1.26929,-0.0021 -1.52929,-0.587375 m -13.9954,-0.108303 c -0.58455,0.259997 -1.26894,-0.0025 -1.52929,-0.587022 -0.0642,-0.143581 -0.096,-0.293864 -0.0995,-0.442384 -0.0579,-0.136877 -0.0896,-0.288219 -0.0896,-0.446616 0,-0.639586 0.51823,-1.157817 1.15852,-1.157817 0.62936,0 1.13948,0.503767 1.15535,1.129947 0.24165,0.578909 -0.0201,1.247423 -0.59549,1.503892 m 6.38951,4.315883 c 0.37712,0 0.70944,0.183092 0.92111,0.462492 0.36018,0.07726 0.71543,0.153811 1.05762,0.232128 1.17722,0.269875 2.46592,0.447675 3.82165,0.551039 -0.002,-0.02928 -0.009,-0.0575 -0.009,-0.08784 0,-0.213783 0.0624,-0.412044 0.16369,-0.583847 -0.0416,-0.06068 -0.0794,-0.124531 -0.11007,-0.193675 -0.2607,-0.584553 0.003,-1.268589 0.58667,-1.529645 0.5842,-0.259644 1.26859,0.0032 1.52894,0.587023 0.15875,0.355952 0.12135,0.747536 -0.0624,1.058333 0.13158,0.188383 0.21025,0.416278 0.21025,0.661811 0,0.06738 -0.009,0.130528 -0.0201,0.194028 0.7553,0.01376 1.52259,0.0092 2.29764,-0.01235 0.0935,-0.311856 0.31292,-0.5842 0.63359,-0.726723 0.5842,-0.260702 1.26895,0.0018 1.52965,0.58667 0.006,0.01376 0.008,0.02611 0.0123,0.03916 0.0624,-0.0042 0.12453,-0.0078 0.18732,-0.01235 -0.002,-0.02293 -0.007,-0.0448 -0.007,-0.06844 0,-0.639233 0.51824,-1.157816 1.15853,-1.157816 0.5969,0 1.08302,0.453319 1.14582,1.033991 1.69792,-0.170391 3.36938,-0.395816 4.95088,-0.653697 0.21202,-0.231775 0.514,-0.380294 0.85337,-0.380294 0.1898,0 0.36689,0.0508 0.52529,0.131939 0.11253,-0.251178 0.31044,-0.464961 0.58102,-0.585611 0.44944,-0.200025 0.95603,-0.08855 1.28552,0.238125 0.67099,-0.137584 1.31198,-0.278342 1.91488,-0.420159 1.11302,-0.261055 1.96956,-0.6096 2.61267,-1.025878 -0.0162,-0.03034 -0.037,-0.05715 -0.0508,-0.08961 -0.2607,-0.584553 0.002,-1.269294 0.58667,-1.528939 0.28681,-0.127705 0.59549,-0.128764 0.86854,-0.02787 1.0795,-2.948517 -2.88043,-7.321197 -6.30096,-10.485261 -0.34537,-0.07655 -0.65299,-0.30727 -0.80786,-0.655814 -0.0166,-0.03739 -0.0251,-0.07549 -0.0378,-0.113242 -0.89323,-0.798689 -1.71097,-1.491544 -2.3428,-2.026708 -0.0332,0.408517 -0.27728,0.7874 -0.67839,0.966258 -0.22507,0.09984 -0.46496,0.121709 -0.68968,0.07796 -0.21025,0.293511 -0.55245,0.486481 -0.94121,0.486481 -0.64029,0 -1.15852,-0.517525 -1.15852,-1.158523 0,-0.639233 0.51823,-1.158169 1.15852,-1.158169 0.0755,0 0.14958,0.0085 0.22154,0.02293 0.11607,-0.162631 0.272,-0.300214 0.46708,-0.387703 0.0586,-0.02505 0.11959,-0.04269 0.17992,-0.05856 -1.08127,-0.838553 -2.14595,-1.405467 -3.19617,-1.747661 -0.0212,0.158397 -0.0748,0.306211 -0.15275,0.438855 0.0423,0.05997 0.0794,0.124178 0.11113,0.193675 0.25999,0.584553 -0.003,1.269295 -0.58738,1.529292 -0.58455,0.259997 -1.26929,-0.0028 -1.52964,-0.587022 -0.1577,-0.355248 -0.12065,-0.746125 0.0621,-1.057981 -0.13158,-0.187678 -0.20955,-0.415572 -0.20955,-0.661811 0,-0.09102 0.0131,-0.178153 0.0325,-0.263172 -0.79587,-0.0314 -1.58291,0.05009 -2.36255,0.223661 -0.11219,0.250825 -0.31045,0.464961 -0.58067,0.585611 -0.36689,0.162631 -0.77294,0.119944 -1.08903,-0.07867 -0.38171,0.145697 -0.76165,0.309033 -1.13982,0.488597 -0.0825,0.0568 -0.17498,0.09913 -0.272,0.13335 -0.98142,0.487539 -1.95015,1.07703 -2.90759,1.723319 0.13229,0.188031 0.21061,0.414867 0.21061,0.661458 0,0.640998 -0.51859,1.158523 -1.15817,1.158523 -0.38665,0 -0.72708,-0.190853 -0.93698,-0.481895 -0.75,0.554214 -1.49366,1.123597 -2.23061,1.684514 0.0977,0.02752 0.1905,0.06915 0.27657,0.119592 0.06,-0.04198 0.12418,-0.08008 0.19403,-0.111125 0.58456,-0.259645 1.26894,0.0025 1.52965,0.587375 0.25999,0.584553 -0.003,1.268941 -0.58738,1.528939 -0.35525,0.158397 -0.74612,0.121002 -1.05833,-0.06209 -0.18733,0.131939 -0.41557,0.20955 -0.66217,0.20955 -0.63923,0 -1.15816,-0.517878 -1.15816,-1.15817 0,-0.0056 0.001,-0.0099 0.001,-0.01517 -0.30833,0.228247 -0.6156,0.450497 -0.92181,0.667102 -0.60643,0.428625 -1.35925,0.884061 -2.14948,1.372659 0.0727,0.08502 0.139,0.176389 0.18662,0.283986 0.0198,0.04515 0.0314,0.09137 0.0455,0.137583 0.15734,-0.08008 0.33267,-0.129117 0.52141,-0.129117 0.63958,0 1.15817,0.518584 1.15817,1.15817 0,0.640291 -0.51859,1.158169 -1.15817,1.158169 -0.52352,0 -0.95991,-0.347839 -1.10349,-0.824441 -0.0176,0.0085 -0.0325,0.02081 -0.0505,0.02857 -0.57855,0.25788 -1.25412,0.0018 -1.52012,-0.570089 -2.43028,1.695802 -4.40302,3.771547 -2.70616,6.4516 2.21686,1.764594 5.38516,2.546349 8.2991,3.171119 0.1651,-0.09172 0.35313,-0.14852 0.55563,-0.14852"
       style="fill:#a7a9ab;fill-opacity:1;fill-rule:nonzero;stroke:none;stroke-width:0.35277775"
       id="path596"
       inkscape:connector-curvature="0" />
  </g>
</svg>
