<?xml version="1.0" encoding="UTF-8" standalone="no"?>
<svg
   xmlns:dc="http://purl.org/dc/elements/1.1/"
   xmlns:cc="http://creativecommons.org/ns#"
   xmlns:rdf="http://www.w3.org/1999/02/22-rdf-syntax-ns#"
   xmlns:svg="http://www.w3.org/2000/svg"
   xmlns="http://www.w3.org/2000/svg"
   xmlns:xlink="http://www.w3.org/1999/xlink"
   viewBox="0 0 200 200"
   version="1.1"
   id="svg5886"
   height="213.33333"
   width="213.33333">
  <defs
     id="defs5888">
    <linearGradient
       id="linearGradient6465">
      <stop
         id="stop6467"
         offset="0"
         style="stop-color:#09549c;stop-opacity:1;" />
      <stop
         style="stop-color:#084d90;stop-opacity:1;"
         offset="0.64179105"
         id="stop6477" />
      <stop
         id="stop6469"
         offset="1"
         style="stop-color:#04396d;stop-opacity:1;" />
    </linearGradient>
    <linearGradient
       id="linearGradient6455">
      <stop
         id="stop6457"
         offset="0"
         style="stop-color:#f4f4f4;stop-opacity:1;" />
      <stop
         id="stop6459"
         offset="1"
         style="stop-color:#dce3ec;stop-opacity:1;" />
    </linearGradient>
    <linearGradient
       id="linearGradient6429">
      <stop
         id="stop6431"
         offset="0"
         style="stop-color:#57c5f8;stop-opacity:1;" />
      <stop
         id="stop6433"
         offset="1"
         style="stop-color:#1282f4;stop-opacity:1;" />
    </linearGradient>
    <clipPath
       id="clipPath6419"
       clipPathUnits="userSpaceOnUse">
      <rect
         y="1728.6593"
         x="24.496199"
         height="102.53049"
         width="113.8947"
         id="rect6421"
         style="color:#000000;display:inline;overflow:visible;visibility:visible;fill:#3c8fc8;fill-opacity:1;fill-rule:nonzero;stroke:none;stroke-width:8.74185181;marker:none;enable-background:accumulate" />
    </clipPath>
    <linearGradient
       gradientTransform="matrix(2.2806612,0,0,2.2806612,-132.03743,711.64296)"
       gradientUnits="userSpaceOnUse"
       y2="145.88385"
       x2="99.941963"
       y1="67.583557"
       x1="99.941963"
       id="linearGradient6435"
       xlink:href="#linearGradient6429" />
    <linearGradient
       gradientUnits="userSpaceOnUse"
       y2="145.69659"
       x2="135.16595"
       y1="145.69659"
       x1="121.22338"
       id="linearGradient6452"
       xlink:href="#linearGradient6429" />
    <linearGradient
       gradientTransform="matrix(2.2806612,0,0,2.2806612,-132.03743,711.64296)"
       gradientUnits="userSpaceOnUse"
       y2="148.64775"
       x2="118.39286"
       y1="101.60714"
       x1="118.39286"
       id="linearGradient6461"
       xlink:href="#linearGradient6455" />
    <radialGradient
       gradientUnits="userSpaceOnUse"
       r="4.2857141"
       fy="124.24107"
       fx="105.84821"
       cy="124.24107"
       cx="105.84821"
       id="radialGradient6471"
       xlink:href="#linearGradient6465" />
    <radialGradient
       gradientUnits="userSpaceOnUse"
       r="4.2857141"
       fy="124.24107"
       fx="105.84821"
       cy="124.24107"
       cx="105.84821"
       id="radialGradient6471-8"
       xlink:href="#linearGradient6465-1" />
    <linearGradient
       id="linearGradient6465-1">
      <stop
         id="stop6467-9"
         offset="0"
         style="stop-color:#09549c;stop-opacity:1;" />
      <stop
         style="stop-color:#084d90;stop-opacity:1;"
         offset="0.64179105"
         id="stop6477-5" />
      <stop
         id="stop6469-5"
         offset="1"
         style="stop-color:#04396d;stop-opacity:1;" />
    </linearGradient>
    <radialGradient
       xlink:href="#linearGradient6465-1"
       id="radialGradient6495"
       gradientUnits="userSpaceOnUse"
       cx="105.84821"
       cy="124.24107"
       fx="105.84821"
       fy="124.24107"
       r="4.2857141" />
    <radialGradient
       gradientUnits="userSpaceOnUse"
       r="4.2857141"
       fy="124.24107"
       fx="105.84821"
       cy="124.24107"
       cx="105.84821"
       id="radialGradient6471-3"
       xlink:href="#linearGradient6465-9" />
    <linearGradient
       id="linearGradient6465-9">
      <stop
         id="stop6467-4"
         offset="0"
         style="stop-color:#09549c;stop-opacity:1;" />
      <stop
         style="stop-color:#084d90;stop-opacity:1;"
         offset="0.64179105"
         id="stop6477-6" />
      <stop
         id="stop6469-1"
         offset="1"
         style="stop-color:#04396d;stop-opacity:1;" />
    </linearGradient>
    <radialGradient
       xlink:href="#linearGradient6465-9"
       id="radialGradient6495-7"
       gradientUnits="userSpaceOnUse"
       cx="105.84821"
       cy="124.24107"
       fx="105.84821"
       fy="124.24107"
       r="4.2857141" />
  </defs>
  <metadata
     id="metadata5891">
    <rdf:RDF>
      <cc:Work
         rdf:about="">
        <dc:format>image/svg+xml</dc:format>
        <dc:type
           rdf:resource="http://purl.org/dc/dcmitype/StillImage" />
        <dc:title></dc:title>
      </cc:Work>
    </rdf:RDF>
  </metadata>
  <g
     transform="translate(0,-852.36218)"
     id="layer1">
    <path
       id="path6423"
       transform="matrix(0.93750002,0,0,0.93750002,0,852.36218)"
       d="M 102.58984 17.814453 C 48.957025 17.814453 10.666016 49.330628 10.666016 98.263672 C 10.666016 138.21183 60.566406 167.93164 60.566406 167.93164 C 59.322344 174.70476 45.361328 191.01562 45.361328 191.01562 C 64.160465 191.9832 82.408203 173.18359 82.408203 173.18359 L 105.63086 173.18359 L 165.48438 147.90039 A 9.3832914 9.3832914 0 0 1 165.04102 147.2793 A 9.3832914 9.3832914 0 0 1 164.57422 146.4668 A 9.3832914 9.3832914 0 0 1 164.18945 145.60938 A 9.3832914 9.3832914 0 0 1 163.89453 144.7207 A 9.3832914 9.3832914 0 0 1 163.68945 143.80469 A 9.3832914 9.3832914 0 0 1 163.57617 142.87305 A 9.3832914 9.3832914 0 0 1 163.55273 142.21094 A 9.3832914 9.3832914 0 0 1 163.59961 141.27344 A 9.3832914 9.3832914 0 0 1 163.74023 140.3457 A 9.3832914 9.3832914 0 0 1 163.97266 139.4375 A 9.3832914 9.3832914 0 0 1 164.29297 138.55664 A 9.3832914 9.3832914 0 0 1 164.70117 137.71094 A 9.3832914 9.3832914 0 0 1 165.19141 136.91211 A 9.3832914 9.3832914 0 0 1 165.75977 136.16602 A 9.3832914 9.3832914 0 0 1 166.39844 135.47852 A 9.3832914 9.3832914 0 0 1 167.10352 134.85938 A 9.3832914 9.3832914 0 0 1 167.86523 134.31445 A 9.3832914 9.3832914 0 0 1 168.67969 133.84766 A 9.3832914 9.3832914 0 0 1 169.53516 133.46484 A 9.3832914 9.3832914 0 0 1 170.42578 133.16797 A 9.3832914 9.3832914 0 0 1 171.3418 132.96289 A 9.3832914 9.3832914 0 0 1 172.27148 132.84961 A 9.3832914 9.3832914 0 0 1 172.93555 132.82617 A 9.3832914 9.3832914 0 0 1 173.87305 132.87305 A 9.3832914 9.3832914 0 0 1 174.80078 133.01367 A 9.3832914 9.3832914 0 0 1 175.70898 133.24609 A 9.3832914 9.3832914 0 0 1 176.58984 133.56836 A 9.3832914 9.3832914 0 0 1 177.43555 133.97461 A 9.3832914 9.3832914 0 0 1 178.23438 134.46484 A 9.3832914 9.3832914 0 0 1 178.98047 135.0332 A 9.3832914 9.3832914 0 0 1 179.66797 135.67188 A 9.3832914 9.3832914 0 0 1 180.28711 136.37695 A 9.3832914 9.3832914 0 0 1 180.83203 137.14062 A 9.3832914 9.3832914 0 0 1 181.29883 137.95312 A 9.3832914 9.3832914 0 0 1 181.68164 138.81055 A 9.3832914 9.3832914 0 0 1 181.97656 139.69922 A 9.3832914 9.3832914 0 0 1 182.18359 140.61523 A 9.3832914 9.3832914 0 0 1 182.27734 141.39648 C 191.58895 135.66887 202.66602 122.86965 202.66602 93.287109 C 202.66602 38.272009 157.88142 17.814453 102.58984 17.814453 z M 115.85352 132.82617 A 9.3832914 9.3832914 0 0 1 125.23828 142.21094 A 9.3832914 9.3832914 0 0 1 115.85352 151.59375 A 9.3832914 9.3832914 0 0 1 106.4707 142.21094 A 9.3832914 9.3832914 0 0 1 115.85352 132.82617 z M 144.10156 132.82617 A 9.3832914 9.3832914 0 0 1 153.48438 142.21094 A 9.3832914 9.3832914 0 0 1 144.10156 151.59375 A 9.3832914 9.3832914 0 0 1 134.71875 142.21094 A 9.3832914 9.3832914 0 0 1 144.10156 132.82617 z "
       style="fill:#ffffff;fill-opacity:1;stroke:none;stroke-width:1.0666666" />
    <path
       id="path6441"
       d="m 130.29419,940.49968 c -28.54706,1.1957 -51.25122,20.7575 -51.25122,44.643 0,24.65602 24.16963,44.58072 54.0088,44.58072 4.2207,0 8.3094,-0.399 12.25157,-1.1554 4.3752,-0.9224 15.62562,6.9164 21.32264,7.0917 0.64141,-2.4741 -8.98507,-10.631 -5.28626,-12.4805 15.45183,-7.8562 25.72083,-21.9455 25.72083,-38.03652 0,-24.656 -24.16967,-44.643 -54.00878,-44.643 -0.93249,0 -1.83671,-0.039 -2.75758,0 z m -21.68151,36.3868 a 8.7968359,8.7968359 0 0 1 0.8789,0.044 8.7968359,8.7968359 0 0 1 0.86975,0.1319 8.7968359,8.7968359 0 0 1 0.85144,0.2179 8.7968359,8.7968359 0 0 1 0.8258,0.3003 8.7968359,8.7968359 0 0 1 0.79286,0.3826 8.7968359,8.7968359 0 0 1 0.74889,0.4596 8.7968359,8.7968359 0 0 1 0.69947,0.5329 8.7968359,8.7968359 0 0 1 0.64453,0.5987 8.7968359,8.7968359 0 0 1 0.58044,0.661 8.7968359,8.7968359 0 0 1 0.51087,0.716 8.7968359,8.7968359 0 0 1 0.43762,0.7617 8.7968359,8.7968359 0 0 1 0.35889,0.8038 8.7968359,8.7968359 0 0 1 0.27648,0.8332 8.7968359,8.7968359 0 0 1 0.1941,0.8587 8.7968359,8.7968359 0 0 1 0.10437,0.8734 8.7968359,8.7968359 0 0 1 0.022,0.6208 8.7968359,8.7968359 0 0 1 -0.0439,0.8789 8.7968359,8.7968359 0 0 1 -0.13,0.8697 8.7968359,8.7968359 0 0 1 -0.2179,0.8515 8.7968359,8.7968359 0 0 1 -0.30212,0.8258 8.7968359,8.7968359 0 0 1 -0.38269,0.7928 8.7968359,8.7968359 0 0 1 -0.45959,0.7489 8.7968359,8.7968359 0 0 1 -0.53101,0.6995 8.7968359,8.7968359 0 0 1 -0.60059,0.6445 8.7968359,8.7968359 0 0 1 -0.65918,0.5805 8.7968359,8.7968359 0 0 1 -0.71594,0.5108 8.7968359,8.7968359 0 0 1 -0.76354,0.4377 8.7968359,8.7968359 0 0 1 -0.80201,0.3588 8.7968359,8.7968359 0 0 1 -0.83496,0.2784 8.7968359,8.7968359 0 0 1 -0.85693,0.1922 8.7968359,8.7968359 0 0 1 -0.87342,0.1062 8.7968359,8.7968359 0 0 1 -0.62255,0.022 8.7968359,8.7968359 0 0 1 -0.87708,-0.044 8.7968359,8.7968359 0 0 1 -0.86976,-0.1318 8.7968359,8.7968359 0 0 1 -0.85326,-0.2179 8.7968359,8.7968359 0 0 1 -0.82581,-0.3021 8.7968359,8.7968359 0 0 1 -0.79101,-0.3827 8.7968359,8.7968359 0 0 1 -0.74891,-0.4596 8.7968359,8.7968359 0 0 1 -0.70129,-0.531 8.7968359,8.7968359 0 0 1 -0.6427,-0.5988 8.7968359,8.7968359 0 0 1 -0.58044,-0.661 8.7968359,8.7968359 0 0 1 -0.51087,-0.7159 8.7968359,8.7968359 0 0 1 -0.43762,-0.7617 8.7968359,8.7968359 0 0 1 -0.36072,-0.8039 8.7968359,8.7968359 0 0 1 -0.27649,-0.8349 8.7968359,8.7968359 0 0 1 -0.192262,-0.857 8.7968359,8.7968359 0 0 1 -0.1062,-0.8734 8.7968359,8.7968359 0 0 1 -0.02197,-0.6225 8.7968359,8.7968359 0 0 1 0.04395,-0.8771 8.7968359,8.7968359 0 0 1 0.131832,-0.8698 8.7968359,8.7968359 0 0 1 0.2179,-0.8514 8.7968359,8.7968359 0 0 1 0.3003,-0.8258 8.7968359,8.7968359 0 0 1 0.38268,-0.7928 8.7968359,8.7968359 0 0 1 0.4596,-0.7489 8.7968359,8.7968359 0 0 1 0.53282,-0.7013 8.7968359,8.7968359 0 0 1 0.59877,-0.6427 8.7968359,8.7968359 0 0 1 0.661,-0.5805 8.7968359,8.7968359 0 0 1 0.71412,-0.5109 8.7968359,8.7968359 0 0 1 0.76356,-0.4376 8.7968359,8.7968359 0 0 1 0.80199,-0.3589 8.7968359,8.7968359 0 0 1 0.83497,-0.2783 8.7968359,8.7968359 0 0 1 0.85877,-0.1922 8.7968359,8.7968359 0 0 1 0.87157,-0.1062 8.7968359,8.7968359 0 0 1 0.62257,-0.022 z m 26.48254,0 a 8.7968359,8.7968359 0 0 1 0.8789,0.044 8.7968359,8.7968359 0 0 1 0.86792,0.1319 8.7968359,8.7968359 0 0 1 0.85328,0.2179 8.7968359,8.7968359 0 0 1 0.8258,0.3003 8.7968359,8.7968359 0 0 1 0.79102,0.3826 8.7968359,8.7968359 0 0 1 0.75073,0.4596 8.7968359,8.7968359 0 0 1 0.69946,0.5329 8.7968359,8.7968359 0 0 1 0.6427,0.5987 8.7968359,8.7968359 0 0 1 0.58044,0.661 8.7968359,8.7968359 0 0 1 0.5127,0.716 8.7968359,8.7968359 0 0 1 0.43762,0.7617 8.7968359,8.7968359 0 0 1 0.35889,0.8038 8.7968359,8.7968359 0 0 1 0.27649,0.8332 8.7968359,8.7968359 0 0 1 0.19226,0.8587 8.7968359,8.7968359 0 0 1 0.1062,0.8734 8.7968359,8.7968359 0 0 1 0.022,0.6208 8.7968359,8.7968359 0 0 1 -0.0439,0.8789 8.7968359,8.7968359 0 0 1 -0.13183,0.8697 8.7968359,8.7968359 0 0 1 -0.21607,0.8515 8.7968359,8.7968359 0 0 1 -0.30213,0.8258 8.7968359,8.7968359 0 0 1 -0.38268,0.7928 8.7968359,8.7968359 0 0 1 -0.4596,0.7489 8.7968359,8.7968359 0 0 1 -0.53284,0.6995 8.7968359,8.7968359 0 0 1 -0.59875,0.6445 8.7968359,8.7968359 0 0 1 -0.66102,0.5805 8.7968359,8.7968359 0 0 1 -0.7141,0.5108 8.7968359,8.7968359 0 0 1 -0.76356,0.4377 8.7968359,8.7968359 0 0 1 -0.802,0.3588 8.7968359,8.7968359 0 0 1 -0.83496,0.2784 8.7968359,8.7968359 0 0 1 -0.85693,0.1922 8.7968359,8.7968359 0 0 1 -0.87342,0.1062 8.7968359,8.7968359 0 0 1 -0.62255,0.022 8.7968359,8.7968359 0 0 1 -0.87891,-0.044 8.7968359,8.7968359 0 0 1 -0.86792,-0.1318 8.7968359,8.7968359 0 0 1 -0.85327,-0.2179 8.7968359,8.7968359 0 0 1 -0.8258,-0.3021 8.7968359,8.7968359 0 0 1 -0.79102,-0.3827 8.7968359,8.7968359 0 0 1 -0.75074,-0.4596 8.7968359,8.7968359 0 0 1 -0.69946,-0.531 8.7968359,8.7968359 0 0 1 -0.6427,-0.5988 8.7968359,8.7968359 0 0 1 -0.58044,-0.661 8.7968359,8.7968359 0 0 1 -0.51269,-0.7159 8.7968359,8.7968359 0 0 1 -0.43763,-0.7617 8.7968359,8.7968359 0 0 1 -0.35888,-0.8039 8.7968359,8.7968359 0 0 1 -0.27649,-0.8349 8.7968359,8.7968359 0 0 1 -0.19226,-0.857 8.7968359,8.7968359 0 0 1 -0.1062,-0.8734 8.7968359,8.7968359 0 0 1 -0.022,-0.6225 8.7968359,8.7968359 0 0 1 0.0439,-0.8771 8.7968359,8.7968359 0 0 1 0.13184,-0.8698 8.7968359,8.7968359 0 0 1 0.21607,-0.8514 8.7968359,8.7968359 0 0 1 0.30212,-0.8258 8.7968359,8.7968359 0 0 1 0.38269,-0.7928 8.7968359,8.7968359 0 0 1 0.45959,-0.7489 8.7968359,8.7968359 0 0 1 0.53284,-0.7013 8.7968359,8.7968359 0 0 1 0.59875,-0.6427 8.7968359,8.7968359 0 0 1 0.66102,-0.5805 8.7968359,8.7968359 0 0 1 0.71411,-0.5109 8.7968359,8.7968359 0 0 1 0.76355,-0.4376 8.7968359,8.7968359 0 0 1 0.802,-0.3589 8.7968359,8.7968359 0 0 1 0.83497,-0.2783 8.7968359,8.7968359 0 0 1 0.85693,-0.1922 8.7968359,8.7968359 0 0 1 0.87341,-0.1062 8.7968359,8.7968359 0 0 1 0.62256,-0.022 z m 27.03186,0 a 8.7968359,8.7968359 0 0 1 0.87891,0.044 8.7968359,8.7968359 0 0 1 0.86974,0.1319 8.7968359,8.7968359 0 0 1 0.85144,0.2179 8.7968359,8.7968359 0 0 1 0.82581,0.3003 8.7968359,8.7968359 0 0 1 0.79101,0.3826 8.7968359,8.7968359 0 0 1 0.75074,0.4596 8.7968359,8.7968359 0 0 1 0.69946,0.5329 8.7968359,8.7968359 0 0 1 0.64271,0.5987 8.7968359,8.7968359 0 0 1 0.58044,0.661 8.7968359,8.7968359 0 0 1 0.51269,0.716 8.7968359,8.7968359 0 0 1 0.43763,0.7617 8.7968359,8.7968359 0 0 1 0.35888,0.8038 8.7968359,8.7968359 0 0 1 0.27649,0.8332 8.7968359,8.7968359 0 0 1 0.19226,0.8587 8.7968359,8.7968359 0 0 1 0.1062,0.8734 8.7968359,8.7968359 0 0 1 0.022,0.6208 8.7968359,8.7968359 0 0 1 -0.0439,0.8789 8.7968359,8.7968359 0 0 1 -0.13001,0.8697 8.7968359,8.7968359 0 0 1 -0.21789,0.8515 8.7968359,8.7968359 0 0 1 -0.30213,0.8258 8.7968359,8.7968359 0 0 1 -0.38269,0.7928 8.7968359,8.7968359 0 0 1 -0.45959,0.7489 8.7968359,8.7968359 0 0 1 -0.53101,0.6995 8.7968359,8.7968359 0 0 1 -0.60058,0.6445 8.7968359,8.7968359 0 0 1 -0.66101,0.5805 8.7968359,8.7968359 0 0 1 -0.71411,0.5108 8.7968359,8.7968359 0 0 1 -0.76355,0.4377 8.7968359,8.7968359 0 0 1 -0.802,0.3588 8.7968359,8.7968359 0 0 1 -0.83497,0.2784 8.7968359,8.7968359 0 0 1 -0.85693,0.1922 8.7968359,8.7968359 0 0 1 -0.87341,0.1062 8.7968359,8.7968359 0 0 1 -0.62256,0.022 8.7968359,8.7968359 0 0 1 -0.8789,-0.044 8.7968359,8.7968359 0 0 1 -0.86792,-0.1318 8.7968359,8.7968359 0 0 1 -0.85328,-0.2179 8.7968359,8.7968359 0 0 1 -0.8258,-0.3021 8.7968359,8.7968359 0 0 1 -0.79102,-0.3827 8.7968359,8.7968359 0 0 1 -0.75073,-0.4596 8.7968359,8.7968359 0 0 1 -0.69947,-0.531 8.7968359,8.7968359 0 0 1 -0.64269,-0.5988 8.7968359,8.7968359 0 0 1 -0.58045,-0.661 8.7968359,8.7968359 0 0 1 -0.5127,-0.7159 8.7968359,8.7968359 0 0 1 -0.43761,-0.7617 8.7968359,8.7968359 0 0 1 -0.3589,-0.8039 8.7968359,8.7968359 0 0 1 -0.27648,-0.8349 8.7968359,8.7968359 0 0 1 -0.19227,-0.857 8.7968359,8.7968359 0 0 1 -0.1062,-0.8734 8.7968359,8.7968359 0 0 1 -0.022,-0.6225 8.7968359,8.7968359 0 0 1 0.0439,-0.8771 8.7968359,8.7968359 0 0 1 0.13183,-0.8698 8.7968359,8.7968359 0 0 1 0.21606,-0.8514 8.7968359,8.7968359 0 0 1 0.30213,-0.8258 8.7968359,8.7968359 0 0 1 0.38269,-0.7928 8.7968359,8.7968359 0 0 1 0.4596,-0.7489 8.7968359,8.7968359 0 0 1 0.53284,-0.7013 8.7968359,8.7968359 0 0 1 0.59875,-0.6427 8.7968359,8.7968359 0 0 1 0.66101,-0.5805 8.7968359,8.7968359 0 0 1 0.71411,-0.5109 8.7968359,8.7968359 0 0 1 0.76355,-0.4376 8.7968359,8.7968359 0 0 1 0.80201,-0.3589 8.7968359,8.7968359 0 0 1 0.83495,-0.2783 8.7968359,8.7968359 0 0 1 0.85693,-0.1922 8.7968359,8.7968359 0 0 1 0.87342,-0.1062 8.7968359,8.7968359 0 0 1 0.62256,-0.022 z"
       style="color:#000000;display:inline;overflow:visible;visibility:visible;fill:#5cb85c;fill-opacity:1;fill-rule:nonzero;stroke:none;stroke-width:8.74185181;marker:none;enable-background:accumulate" />
  </g>
</svg>
