<?xml version="1.0" encoding="UTF-8" standalone="no"?>
<!-- Created with Inkscape (http://www.inkscape.org/) -->

<svg
   xmlns:dc="http://purl.org/dc/elements/1.1/"
   xmlns:cc="http://creativecommons.org/ns#"
   xmlns:rdf="http://www.w3.org/1999/02/22-rdf-syntax-ns#"
   xmlns:svg="http://www.w3.org/2000/svg"
   xmlns="http://www.w3.org/2000/svg"
   xmlns:sodipodi="http://sodipodi.sourceforge.net/DTD/sodipodi-0.dtd"
   xmlns:inkscape="http://www.inkscape.org/namespaces/inkscape"
   width="14.111112mm"
   height="14.111112mm"
   viewBox="0 0 50.000002 50.000002"
   id="svg4197"
   version="1.1"
   inkscape:version="0.91 r13725"
   sodipodi:docname="pick-2.svg">
  <defs
     id="defs4199" />
  <sodipodi:namedview
     id="base"
     pagecolor="#ffffff"
     bordercolor="#666666"
     borderopacity="1.0"
     inkscape:pageopacity="0.0"
     inkscape:pageshadow="2"
     inkscape:zoom="6.9933919"
     inkscape:cx="59.243779"
     inkscape:cy="30.31714"
     inkscape:document-units="px"
     inkscape:current-layer="layer1"
     showgrid="false"
     fit-margin-top="0"
     fit-margin-left="0"
     fit-margin-right="0"
     fit-margin-bottom="0"
     inkscape:window-width="1920"
     inkscape:window-height="980"
     inkscape:window-x="0"
     inkscape:window-y="24"
     inkscape:window-maximized="1" />
  <metadata
     id="metadata4202">
    <rdf:RDF>
      <cc:Work
         rdf:about="">
        <dc:format>image/svg+xml</dc:format>
        <dc:type
           rdf:resource="http://purl.org/dc/dcmitype/StillImage" />
        <dc:title></dc:title>
      </cc:Work>
    </rdf:RDF>
  </metadata>
  <g
     inkscape:label="Layer 1"
     inkscape:groupmode="layer"
     id="layer1"
     transform="translate(-464.87118,-810.91339)">
    <circle
       style="opacity:1;fill:#ffffff;fill-opacity:1;fill-rule:nonzero;stroke:#ffffff;stroke-width:2.14244223;stroke-linejoin:round;stroke-miterlimit:4;stroke-dasharray:none;stroke-opacity:1"
       id="path4136-0"
       cx="489.87119"
       cy="835.91339"
       r="23.92878" />
    <g
       style="font-style:normal;font-variant:normal;font-weight:normal;font-stretch:normal;font-size:50px;line-height:125%;font-family:'Roboto Mono';-inkscape-font-specification:'Roboto Mono';letter-spacing:0px;word-spacing:0px;fill:#000000;fill-opacity:1;stroke:none;stroke-width:1px;stroke-linecap:butt;stroke-linejoin:miter;stroke-opacity:1"
       id="text4151-3">
      <path
         d="m 502.35898,853.93097 -24.24317,0 0,-4.63867 11.49903,-12.35352 q 1.34277,-1.46484 2.27051,-2.66113 0.92773,-1.19629 1.48925,-2.17285 0.58594,-1.00098 0.83008,-1.85547 0.26856,-0.85449 0.26856,-1.66016 0,-1.19629 -0.3418,-2.12402 -0.3418,-0.92774 -0.97656,-1.5625 -0.61035,-0.65918 -1.48926,-1.00098 -0.85449,-0.34179 -1.9043,-0.34179 -2.80762,0 -4.19922,1.5625 -1.36718,1.5625 -1.36718,4.37011 l -6.81153,0 q 0,-2.36816 0.90332,-4.46777 0.90332,-2.12402 2.53907,-3.71094 1.66015,-1.58691 3.97949,-2.49023 2.34375,-0.92774 5.17578,-0.92774 2.70996,0 4.78515,0.75684 2.09961,0.75683 3.49122,2.12402 1.41601,1.36719 2.14843,3.2959 0.73243,1.9043 0.73243,4.22363 0,1.75782 -0.56153,3.36914 -0.53711,1.58692 -1.5625,3.14942 -1.00097,1.5625 -2.41699,3.19824 -1.41602,1.61133 -3.14941,3.39356 l -6.68946,7.08007 15.60059,0 0,5.44434 z"
         style="font-style:normal;font-variant:normal;font-weight:bold;font-stretch:normal;font-family:'Roboto Mono';-inkscape-font-specification:'Roboto Mono Bold'"
         id="path4824" />
    </g>
  </g>
</svg>
