<?xml version="1.0" encoding="UTF-8" standalone="no"?>
<!-- Created with Inkscape (http://www.inkscape.org/) -->

<svg
   xmlns:dc="http://purl.org/dc/elements/1.1/"
   xmlns:cc="http://creativecommons.org/ns#"
   xmlns:rdf="http://www.w3.org/1999/02/22-rdf-syntax-ns#"
   xmlns:svg="http://www.w3.org/2000/svg"
   xmlns="http://www.w3.org/2000/svg"
   xmlns:sodipodi="http://sodipodi.sourceforge.net/DTD/sodipodi-0.dtd"
   xmlns:inkscape="http://www.inkscape.org/namespaces/inkscape"
   width="14.111111mm"
   height="14.111111mm"
   viewBox="0 0 49.999999 49.999999"
   id="svg4197"
   version="1.1"
   inkscape:version="0.91 r13725"
   sodipodi:docname="pick-3.svg">
  <defs
     id="defs4199" />
  <sodipodi:namedview
     id="base"
     pagecolor="#ffffff"
     bordercolor="#666666"
     borderopacity="1.0"
     inkscape:pageopacity="0.0"
     inkscape:pageshadow="2"
     inkscape:zoom="6.9933919"
     inkscape:cx="49.114964"
     inkscape:cy="26.765929"
     inkscape:document-units="px"
     inkscape:current-layer="layer1"
     showgrid="false"
     fit-margin-top="0"
     fit-margin-left="0"
     fit-margin-right="0"
     fit-margin-bottom="0"
     inkscape:window-width="1920"
     inkscape:window-height="980"
     inkscape:window-x="0"
     inkscape:window-y="24"
     inkscape:window-maximized="1" />
  <metadata
     id="metadata4202">
    <rdf:RDF>
      <cc:Work
         rdf:about="">
        <dc:format>image/svg+xml</dc:format>
        <dc:type
           rdf:resource="http://purl.org/dc/dcmitype/StillImage" />
        <dc:title></dc:title>
      </cc:Work>
    </rdf:RDF>
  </metadata>
  <g
     inkscape:label="Layer 1"
     inkscape:groupmode="layer"
     id="layer1"
     transform="translate(-475,-807.36218)">
    <circle
       style="opacity:1;fill:#ffffff;fill-opacity:1;fill-rule:nonzero;stroke:#ffffff;stroke-width:2.14244223;stroke-linejoin:round;stroke-miterlimit:4;stroke-dasharray:none;stroke-opacity:1"
       id="path4136-0-5"
       cx="500"
       cy="832.36218"
       r="23.92878" />
    <g
       style="font-style:normal;font-variant:normal;font-weight:normal;font-stretch:normal;font-size:50px;line-height:125%;font-family:'Roboto Mono';-inkscape-font-specification:'Roboto Mono';letter-spacing:0px;word-spacing:0px;fill:#000000;fill-opacity:1;stroke:none;stroke-width:1px;stroke-linecap:butt;stroke-linejoin:miter;stroke-opacity:1"
       id="text4151-3-8">
      <path
         d="m 495.72754,829.38367 3.68652,0 q 2.78321,0 4.12598,-1.3916 1.34277,-1.41602 1.34277,-3.68653 0,-1.0498 -0.31738,-1.90429 -0.29297,-0.87891 -0.90332,-1.48926 -0.61035,-0.63477 -1.5625,-0.97657 -0.92774,-0.34179 -2.17285,-0.34179 -1.02539,0 -1.92871,0.29297 -0.87891,0.29297 -1.5625,0.85449 -0.65918,0.53711 -1.04981,1.31836 -0.39062,0.78125 -0.39062,1.75781 l -6.78711,0 q 0,-2.17285 0.8789,-3.95508 0.90332,-1.78222 2.46582,-3.05176 1.5625,-1.29394 3.66211,-2.00195 2.12403,-0.70801 4.56543,-0.70801 2.63672,0 4.83399,0.65918 2.19726,0.63477 3.75976,1.92871 1.5625,1.26954 2.417,3.17383 0.8789,1.87989 0.8789,4.37012 0,1.14746 -0.3418,2.27051 -0.34179,1.09863 -1.00097,2.09961 -0.65918,1.00097 -1.63574,1.85547 -0.97657,0.83007 -2.2461,1.44043 1.48926,0.5371 2.56348,1.36718 1.09863,0.83008 1.80664,1.9043 0.70801,1.0498 1.0498,2.31934 0.3418,1.26953 0.3418,2.68554 0,2.49024 -0.95215,4.44336 -0.95215,1.95313 -2.6123,3.2959 -1.66016,1.31836 -3.95508,2.02637 -2.27051,0.68359 -4.90723,0.68359 -2.2705,0 -4.44336,-0.61035 -2.14843,-0.63477 -3.833,-1.87988 -1.68457,-1.26953 -2.70996,-3.17383 -1.00098,-1.9043 -1.00098,-4.49219 l 6.78711,0 q 0,1.02539 0.39062,1.9043 0.39063,0.85449 1.09864,1.48926 0.73242,0.61035 1.70898,0.97656 0.97656,0.3418 2.14844,0.3418 2.58789,0 4.05273,-1.36719 1.46485,-1.36719 1.46485,-3.71094 0,-1.44043 -0.41504,-2.46582 -0.41504,-1.02539 -1.22071,-1.68457 -0.78125,-0.65918 -1.90429,-0.97656 -1.09864,-0.31739 -2.49024,-0.31739 l -3.68652,0 0,-5.27343 z"
         style="font-style:normal;font-variant:normal;font-weight:bold;font-stretch:normal;font-family:'Roboto Mono';-inkscape-font-specification:'Roboto Mono Bold'"
         id="path4781"
         inkscape:connector-curvature="0" />
    </g>
  </g>
</svg>
