<svg id="svg2" xmlns:rdf="http://www.w3.org/1999/02/22-rdf-syntax-ns#" xmlns="http://www.w3.org/2000/svg" viewBox="0 0 289.12 288.3" version="1.1" xmlns:cc="http://creativecommons.org/ns#" xmlns:dc="http://purl.org/dc/elements/1.1/">
 <title id="title4">search icon light grey</title>
 <g id="g7" transform="translate(-211.43 -83.631)">
  <title id="title9">Layer 1</title>
  <path id="path12423" style="stroke-width:9.7562;fill:#929292" d="m243.94 116.09c-43.27 43.27-43.38 114.15-0.11 157.43 36.67 36.66 93.21 42.25 135.92 16.76l76.344 74.235c10.507 10.198 27.085 9.821 37.117-0.84402 10.033-10.665 9.77-27.446-0.73801-37.644l-75.183-72.864c26.37-42.85 21.01-100.05-16.02-137.08-43.273-43.273-114.05-43.273-157.33 0zm31.739 31.739c26.102-26.102 67.746-26.102 93.848 0s26.102 67.746 0 93.848-67.746 26.102-93.848 0-26.102-67.746 0-93.848z"/>
 </g>
</svg>
